<svg width="168" height="46" viewBox="0 0 168 46" fill="none" xmlns="http://www.w3.org/2000/svg">
<rect y="-0.000488281" width="168" height="46" rx="6" fill="#1C1C21"/>
<path d="M21.3887 17.0995H19.1787V28.9995H21.3887V23.9335H24.1087L26.3357 28.9995H28.7837L26.8797 24.6815C26.5227 23.8655 26.0297 23.1515 25.8427 22.8625C26.0637 22.5055 26.4207 21.8935 26.6587 21.3665L28.6477 17.0995H26.2677L24.1087 22.0635H21.3887V17.0995ZM42.423 20.4995H35.045V28.9995H37.085V22.1995H40.383V28.9995H42.423V20.4995ZM44.8067 32.0935H46.8637V27.9965C47.5097 28.7445 48.4617 29.2035 49.4987 29.2035C52.1847 29.2035 53.5787 27.3675 53.5787 24.7495C53.5787 22.0805 52.0147 20.2955 49.6177 20.2955C48.3937 20.2955 47.4757 20.8055 46.8127 21.5535H46.7787V20.4995H44.8067V32.0935ZM49.1417 27.4865C47.7307 27.4865 46.8467 26.3645 46.8467 24.7495C46.8467 23.1855 47.7477 22.0295 49.1417 22.0295C50.6717 22.0295 51.3687 23.2705 51.3687 24.7665C51.3687 26.3135 50.6377 27.4865 49.1417 27.4865ZM57.2997 23.8825C57.4017 22.7605 58.1157 21.8935 59.2887 21.8935C60.6317 21.8935 61.2607 22.7435 61.2607 23.8825H57.2997ZM63.1817 26.5005C62.3657 27.1465 61.1587 27.5375 60.0027 27.5375C58.2007 27.5375 57.4017 26.5175 57.3337 25.2425H63.4537V24.5965C63.4537 22.1995 62.2127 20.2955 59.4247 20.2955C56.9597 20.2955 55.0727 21.9445 55.0727 24.6815C55.0727 27.1975 56.4497 29.2035 59.6457 29.2035C61.7027 29.2035 62.5697 28.7105 63.1817 28.3535C63.1817 27.9285 63.1817 26.9255 63.1817 26.5005ZM66.4676 20.4995L66.4166 21.6385C66.2976 23.6785 65.9236 25.5485 64.9036 27.3675H64.0026V31.1755H65.9746V28.9995H71.4656V31.1755H73.4376V27.3675H72.3666V20.4995H66.4676ZM68.2866 22.1315H70.3266V27.3675H66.9776C67.8616 25.4975 68.1676 24.1715 68.2866 22.1315ZM75.9767 20.4995L75.7387 24.3245C75.6367 25.9395 75.2967 27.2485 73.6987 27.4015L73.9877 29.1525C75.7727 29.1185 77.3537 28.4385 77.6087 24.4775L77.7787 22.1655H80.0397V28.9995H82.0797V20.4995H75.9767ZM84.0258 24.7495C84.0258 27.2825 85.8788 29.2035 88.5818 29.2035C91.2678 29.2035 93.1038 27.2825 93.1038 24.7495C93.1038 22.2505 91.2678 20.2955 88.5818 20.2955C85.8788 20.2955 84.0258 22.2505 84.0258 24.7495ZM86.2358 24.7665C86.2358 23.0835 87.2218 22.0295 88.5818 22.0295C89.9078 22.0295 90.8938 23.0665 90.8938 24.7495C90.8938 26.4665 89.9078 27.4695 88.5818 27.4695C87.2218 27.4695 86.2358 26.4495 86.2358 24.7665ZM99.0922 23.8145H97.8172L96.2532 20.4995H94.0432L95.4882 23.4065C95.6922 23.8145 95.8962 24.1545 96.1512 24.5455C95.8792 24.9535 95.7092 25.2255 95.3692 25.9395L93.9582 28.9995H96.1512L97.7492 25.4805H99.0922V28.9995H101.132V25.4805H102.475L104.073 28.9995H106.266L104.855 25.9395C104.515 25.2255 104.345 24.9535 104.073 24.5455C104.328 24.1545 104.532 23.8145 104.736 23.4065L106.181 20.4995H103.971L102.407 23.8145H101.132V20.4995H99.0922V23.8145ZM109.362 23.8825C109.464 22.7605 110.178 21.8935 111.351 21.8935C112.694 21.8935 113.323 22.7435 113.323 23.8825H109.362ZM115.244 26.5005C114.428 27.1465 113.221 27.5375 112.065 27.5375C110.263 27.5375 109.464 26.5175 109.396 25.2425H115.516V24.5965C115.516 22.1995 114.275 20.2955 111.487 20.2955C109.022 20.2955 107.135 21.9445 107.135 24.6815C107.135 27.1975 108.512 29.2035 111.708 29.2035C113.765 29.2035 114.632 28.7105 115.244 28.3535C115.244 27.9285 115.244 26.9255 115.244 26.5005ZM124.969 20.4995H122.929V23.7635H119.495V20.4995H117.455V28.9995H119.495V25.4635H122.929V28.9995H124.969V20.4995ZM135 20.4995H133.062L129.39 25.9225V20.4995H127.35V28.9995H129.288L132.96 23.6105V28.9995H135V20.4995ZM139.417 20.4995H137.377V28.9995H139.417V25.4975H140.692C141.015 27.7245 142.596 29.2035 145.027 29.2035C147.713 29.2035 149.413 27.2825 149.413 24.7495C149.413 22.2505 147.713 20.2955 145.027 20.2955C142.681 20.2955 141.1 21.7235 140.726 23.8315H139.417V20.4995ZM142.868 24.7665C142.868 23.0835 143.616 21.9445 145.027 21.9445C146.421 21.9445 147.169 23.0665 147.169 24.7495C147.169 26.4665 146.421 27.5375 145.027 27.5375C143.616 27.5375 142.868 26.4495 142.868 24.7665Z" fill="white"/>
</svg>
