<svg width="476" height="351" viewBox="0 0 476 351" fill="none" xmlns="http://www.w3.org/2000/svg">
<path d="M336.862 59.4673V105.742L239.199 119.783L248.88 124.787" stroke="#1C1C21" stroke-linecap="round" stroke-linejoin="round"/>
<path d="M217.537 254.83L78.2079 271.189C77.9261 271.194 77.649 271.262 77.3974 271.389C77.1459 271.516 76.9263 271.699 76.7551 271.923C76.5839 272.146 76.4655 272.406 76.4088 272.682C76.3521 272.958 76.3585 273.244 76.4277 273.517L76.454 273.622C76.5571 274.031 76.7951 274.394 77.1296 274.651C77.4641 274.908 77.8755 275.045 78.2974 275.039L216.973 259.065" fill="#1C1C21"/>
<path d="M327.787 323.251L214.445 346.657C214.163 346.662 213.885 346.731 213.633 346.858C213.381 346.986 213.16 347.168 212.989 347.393C212.817 347.617 212.698 347.877 212.641 348.154C212.584 348.431 212.591 348.717 212.66 348.99L212.686 349.096C212.792 349.503 213.031 349.863 213.365 350.119C213.699 350.375 214.109 350.511 214.529 350.507L327.24 327.47" fill="#1C1C21"/>
<path d="M444.527 273.053C445.394 273.484 446.105 274.175 446.559 275.03C447.014 275.885 447.189 276.861 447.062 277.821C446.934 278.781 446.509 279.676 445.847 280.383C445.184 281.089 444.318 281.57 443.368 281.759L386.844 293.015C385.533 293.278 336.251 265.627 337.863 265.248L398.026 252.149C399.898 251.742 401.853 251.982 403.572 252.829C410.824 256.4 431.223 266.449 444.527 273.053Z" fill="#1C1C21"/>
<path d="M470.076 265.322C470.943 265.752 471.654 266.444 472.109 267.299C472.563 268.154 472.739 269.129 472.611 270.089C472.483 271.049 472.058 271.945 471.396 272.651C470.734 273.357 469.867 273.839 468.918 274.028L461.655 275.007C459.057 275.359 456.413 274.93 454.06 273.775L408.897 251.654C408.497 251.459 408.168 251.145 407.956 250.755C407.743 250.365 407.656 249.918 407.708 249.477C407.76 249.035 407.948 248.621 408.246 248.291C408.544 247.961 408.937 247.732 409.371 247.636L423.591 244.439C425.464 244.032 427.419 244.271 429.137 245.118C436.374 248.668 456.772 258.733 470.076 265.322Z" fill="#1C1C21"/>
<path d="M440.013 321.55L335.519 343.297C332.339 343.958 329.029 343.493 326.155 341.98L160.86 254.798C154.856 251.638 156.036 242.685 162.656 241.205L256.406 219.948C257.675 219.661 259.004 219.823 260.167 220.406L441.383 310.995C442.434 311.515 443.297 312.35 443.85 313.384C444.403 314.418 444.62 315.599 444.469 316.762C444.318 317.925 443.807 319.012 443.009 319.87C442.21 320.729 441.162 321.316 440.013 321.55Z" fill="#1C1C21"/>
<path d="M334.645 201.403L333.86 198.343L347.459 194.82C349.032 194.409 350.479 193.618 351.673 192.516C352.867 191.413 353.771 190.034 354.306 188.499L370.107 143.336L373.093 144.39L357.292 189.553C356.587 191.576 355.393 193.394 353.818 194.846C352.243 196.299 350.334 197.341 348.26 197.88L334.645 201.403Z" stroke="#1C1C21" stroke-linecap="round" stroke-linejoin="round"/>
<path d="M365.219 214.307L364.408 211.247L378.023 207.692C379.596 207.283 381.043 206.492 382.238 205.39C383.432 204.287 384.336 202.907 384.869 201.372L400.67 156.208L403.656 157.262L387.856 202.425C387.15 204.448 385.957 206.266 384.381 207.719C382.806 209.171 380.897 210.213 378.823 210.752L365.219 214.307Z" stroke="#1C1C21" stroke-linecap="round" stroke-linejoin="round"/>
<path d="M373.972 215.924L389.984 275.539C390.055 275.808 390.064 276.09 390.01 276.363C389.956 276.636 389.841 276.893 389.673 277.115C389.505 277.337 389.288 277.517 389.04 277.643C388.792 277.769 388.518 277.836 388.24 277.841C387.834 277.846 387.437 277.716 387.113 277.471C386.788 277.226 386.555 276.88 386.449 276.487L370.17 215.982" fill="white"/>
<path d="M373.972 215.924L389.984 275.539C390.055 275.808 390.064 276.09 390.01 276.363C389.956 276.636 389.841 276.893 389.673 277.115C389.505 277.337 389.288 277.517 389.04 277.643C388.792 277.769 388.518 277.836 388.24 277.841V277.841C387.834 277.846 387.437 277.716 387.113 277.471C386.788 277.226 386.555 276.88 386.449 276.487L370.17 215.982" stroke="#1C1C21" stroke-width="2" stroke-linejoin="round"/>
<path d="M329.009 226.689L311.16 293.578C311.088 293.848 311.078 294.13 311.132 294.404C311.185 294.678 311.301 294.936 311.47 295.158C311.639 295.38 311.856 295.56 312.105 295.686C312.355 295.811 312.63 295.877 312.909 295.88H313.093C313.497 295.882 313.89 295.75 314.211 295.507C314.533 295.263 314.766 294.92 314.873 294.531L332.949 228.332" fill="white"/>
<path d="M329.009 226.689L311.16 293.578C311.088 293.848 311.078 294.13 311.132 294.404C311.185 294.678 311.301 294.936 311.47 295.158C311.639 295.38 311.856 295.56 312.105 295.686C312.355 295.811 312.63 295.877 312.909 295.88H313.093C313.497 295.882 313.89 295.75 314.211 295.507C314.533 295.263 314.766 294.92 314.873 294.531L332.949 228.332" stroke="#1C1C21" stroke-width="2" stroke-linejoin="round"/>
<path d="M287.322 204.574L263.032 269.356C262.934 269.617 262.897 269.898 262.924 270.176C262.951 270.453 263.041 270.722 263.187 270.959C263.333 271.197 263.532 271.398 263.768 271.548C264.004 271.697 264.271 271.79 264.549 271.821H264.728C265.129 271.865 265.534 271.775 265.879 271.564C266.224 271.353 266.49 271.034 266.634 270.657L291.083 206.565" fill="white"/>
<path d="M287.322 204.574L263.032 269.356C262.934 269.617 262.897 269.898 262.924 270.176C262.951 270.453 263.041 270.722 263.187 270.959C263.333 271.197 263.532 271.398 263.768 271.548C264.004 271.697 264.271 271.79 264.549 271.821H264.728C265.129 271.865 265.534 271.775 265.879 271.564C266.224 271.353 266.49 271.034 266.634 270.657L291.083 206.565" stroke="#1C1C21" stroke-width="2" stroke-linejoin="round"/>
<path d="M394.155 220.664C394.15 221.309 393.923 221.933 393.511 222.43C393.099 222.927 392.529 223.267 391.895 223.392L321.22 237.481C320.407 237.639 319.564 237.513 318.834 237.123L270.442 210.557C270.189 210.42 269.979 210.216 269.833 209.969C269.687 209.721 269.612 209.438 269.615 209.151L269.657 203.963C269.661 203.585 269.8 203.221 270.05 202.937C270.299 202.653 270.642 202.467 271.016 202.414L334.439 188.836L392.628 214.67C393.098 214.904 393.494 215.265 393.769 215.713C394.044 216.162 394.187 216.678 394.181 217.204L394.155 220.664Z" fill="#1C1C21"/>
<path d="M320.946 229.402C320.084 229.4 319.236 229.186 318.476 228.78L272.875 204.921C272.648 204.797 272.465 204.607 272.349 204.376C272.233 204.144 272.19 203.883 272.227 203.627C272.264 203.371 272.378 203.132 272.554 202.943C272.73 202.753 272.96 202.622 273.213 202.567L336.272 188.836H336.336C336.378 188.836 336.42 188.847 336.457 188.868L391.917 214.881C391.97 214.907 392.014 214.95 392.041 215.003C392.068 215.056 392.078 215.116 392.069 215.175C392.059 215.234 392.031 215.289 391.989 215.33C391.946 215.372 391.891 215.399 391.832 215.408L321.962 229.302C321.628 229.369 321.287 229.402 320.946 229.402Z" fill="white"/>
<path d="M336.304 189.353L390.979 215.002L321.857 228.785C321.557 228.844 321.252 228.874 320.946 228.875C320.166 228.873 319.399 228.68 318.713 228.311L273.134 204.463C273 204.39 272.893 204.278 272.825 204.143C272.757 204.007 272.731 203.854 272.753 203.703C272.774 203.553 272.84 203.413 272.943 203.301C273.046 203.189 273.18 203.111 273.328 203.078L336.304 189.384V189.353ZM336.33 188.331H336.162L273.102 202.051C272.742 202.128 272.415 202.314 272.165 202.584C271.915 202.853 271.753 203.193 271.702 203.557C271.651 203.921 271.713 204.292 271.879 204.62C272.046 204.948 272.309 205.217 272.633 205.39L318.228 229.244C319.401 229.875 320.756 230.078 322.062 229.818L391.932 215.887C392.097 215.856 392.247 215.774 392.362 215.653C392.477 215.531 392.552 215.377 392.575 215.212C392.598 215.046 392.569 214.878 392.492 214.729C392.414 214.581 392.292 214.461 392.143 214.386L336.699 188.394C336.585 188.336 336.458 188.305 336.33 188.304V188.331Z" fill="#1C1C21"/>
<path d="M412.046 187.035L427.115 148.061C427.295 147.595 427.38 147.099 427.365 146.6C427.351 146.101 427.236 145.611 427.028 145.157C426.82 144.703 426.524 144.296 426.156 143.959C425.788 143.622 425.357 143.362 424.887 143.194L373.562 124.76C372.693 124.444 371.77 124.305 370.847 124.35C369.924 124.395 369.02 124.623 368.186 125.022C367.352 125.421 366.607 125.981 365.992 126.672C365.378 127.362 364.907 128.168 364.608 129.042L352.521 164.214C352.206 165.13 352.259 166.132 352.667 167.01C353.076 167.888 353.808 168.573 354.712 168.923L407.18 189.189C407.64 189.371 408.133 189.459 408.628 189.449C409.123 189.438 409.611 189.33 410.063 189.129C410.516 188.929 410.924 188.641 411.265 188.281C411.605 187.922 411.871 187.498 412.046 187.035Z" fill="#1C1C21" stroke="#1C1C21" stroke-linecap="round" stroke-linejoin="round"/>
<path d="M406.495 188.905L424.297 142.867L365.788 121.842C365.387 121.699 364.963 121.636 364.538 121.658C364.113 121.68 363.697 121.786 363.314 121.97C362.931 122.155 362.588 122.413 362.305 122.731C362.023 123.049 361.807 123.42 361.669 123.823L348.181 163.071C347.911 163.856 347.956 164.715 348.307 165.467C348.658 166.22 349.286 166.807 350.061 167.105L406.495 188.905Z" fill="white" stroke="#1C1C21" stroke-linecap="round" stroke-linejoin="round"/>
<path d="M336.262 223.166L364.755 315.825C364.841 316.105 364.86 316.402 364.81 316.69C364.761 316.979 364.644 317.252 364.47 317.487C364.296 317.723 364.069 317.914 363.808 318.047C363.546 318.179 363.258 318.248 362.965 318.248C362.564 318.248 362.174 318.119 361.852 317.881C361.53 317.644 361.292 317.309 361.174 316.926L332.312 223.176" fill="white"/>
<path d="M336.262 223.166L364.755 315.825C364.841 316.105 364.86 316.402 364.81 316.69C364.761 316.979 364.644 317.252 364.47 317.487C364.296 317.723 364.069 317.914 363.808 318.047C363.546 318.179 363.258 318.248 362.965 318.248V318.248C362.564 318.248 362.174 318.119 361.852 317.881C361.53 317.644 361.292 317.309 361.174 316.926L332.312 223.176" stroke="#1C1C21" stroke-linecap="round" stroke-linejoin="round"/>
<path d="M116.161 164.993L80.2461 273.49C80.123 273.865 79.8846 274.192 79.565 274.424C79.2453 274.655 78.8607 274.78 78.4659 274.781C78.169 274.78 77.8764 274.71 77.612 274.575C77.3476 274.44 77.1189 274.244 76.9448 274.003C76.7706 273.763 76.6558 273.485 76.6099 273.191C76.564 272.898 76.5881 272.598 76.6804 272.316L113.022 161.812" stroke="#1C1C21" stroke-linecap="round" stroke-linejoin="round"/>
<path d="M239.357 231.851L212.286 347.558C212.222 347.833 212.22 348.119 212.282 348.394C212.343 348.669 212.466 348.927 212.642 349.149C212.817 349.37 213.04 349.549 213.293 349.672C213.547 349.795 213.826 349.859 214.108 349.86H214.219C214.641 349.86 215.05 349.718 215.381 349.456C215.712 349.194 215.945 348.827 216.041 348.416L243.307 233.441" fill="white"/>
<path d="M239.357 231.851L212.286 347.558C212.222 347.833 212.22 348.119 212.282 348.394C212.343 348.669 212.466 348.927 212.642 349.149C212.817 349.37 213.04 349.549 213.293 349.672C213.547 349.795 213.826 349.859 214.108 349.86H214.219C214.641 349.86 215.05 349.718 215.381 349.456C215.712 349.194 215.945 348.827 216.041 348.416L243.307 233.441" stroke="#1C1C21" stroke-linecap="round" stroke-linejoin="round"/>
<path d="M249.775 262.019C248.709 262.018 247.658 261.758 246.715 261.261L65.0723 163.429C64.5584 163.159 64.1282 162.752 63.8284 162.255C63.5285 161.757 63.3704 161.187 63.3711 160.606V155.845C63.3636 155.078 63.6351 154.335 64.1351 153.753C64.6352 153.172 65.3295 152.792 66.0888 152.685L173.327 128.752L371.702 225.278C372.589 225.713 373.336 226.388 373.86 227.225C374.384 228.063 374.664 229.03 374.668 230.018V231.877C374.663 233.09 374.242 234.264 373.475 235.204C372.708 236.144 371.641 236.791 370.454 237.039L251.113 261.882C250.673 261.972 250.224 262.018 249.775 262.019Z" fill="#1C1C21"/>
<path d="M173.258 129.305L371.471 225.752C372.271 226.14 372.946 226.747 373.419 227.501C373.891 228.256 374.141 229.128 374.141 230.018V231.877C374.143 232.969 373.768 234.029 373.078 234.876C372.389 235.723 371.429 236.307 370.359 236.528L251.002 261.366C249.629 261.651 248.199 261.45 246.957 260.797L65.3199 162.966C64.8908 162.739 64.5316 162.399 64.2811 161.984C64.0305 161.568 63.898 161.092 63.8978 160.606V155.845C63.8994 155.207 64.1292 154.591 64.5455 154.108C64.9619 153.625 65.5373 153.307 66.1678 153.212L173.258 129.337V129.305ZM173.39 128.226L173.032 128.31L65.973 152.158C65.0948 152.293 64.2947 152.74 63.7199 153.417C63.1451 154.094 62.8342 154.957 62.8445 155.845V160.585C62.8406 161.263 63.0239 161.93 63.3743 162.51C63.7246 163.091 64.2283 163.564 64.8301 163.877L246.457 261.708C247.481 262.245 248.619 262.527 249.775 262.53C250.26 262.531 250.744 262.482 251.218 262.383L370.575 237.539C371.879 237.264 373.048 236.55 373.889 235.517C374.73 234.484 375.19 233.193 375.194 231.861V230.002C375.19 228.915 374.882 227.851 374.305 226.929C373.728 226.008 372.905 225.266 371.929 224.788L173.748 128.357L173.416 128.194L173.39 128.226Z" fill="white"/>
<path d="M250.16 252.139C248.842 252.137 247.545 251.818 246.378 251.206L66.5997 156.372C66.3393 156.235 66.1269 156.022 65.9913 155.761C65.8556 155.5 65.8032 155.204 65.8411 154.913C65.879 154.621 66.0053 154.348 66.2031 154.131C66.4009 153.913 66.6607 153.761 66.9473 153.696L176.577 128.847L371.565 226.336C371.637 226.372 371.696 226.429 371.734 226.5C371.772 226.571 371.787 226.651 371.776 226.731C371.766 226.811 371.731 226.885 371.676 226.943C371.621 227.002 371.549 227.042 371.471 227.058L251.808 251.96C251.266 252.077 250.714 252.137 250.16 252.139Z" fill="white"/>
<path d="M176.508 129.411L370.96 226.637L251.697 251.454C249.973 251.811 248.178 251.558 246.62 250.738L66.8315 155.919C66.6663 155.832 66.5317 155.696 66.4461 155.531C66.3604 155.365 66.3277 155.177 66.3524 154.992C66.3771 154.807 66.458 154.634 66.5842 154.496C66.7104 154.359 66.8757 154.263 67.0579 154.223L176.498 129.411H176.508ZM176.598 128.315H176.534L66.8315 153.212C66.4396 153.3 66.0844 153.507 65.8138 153.804C65.5431 154.101 65.37 154.474 65.3178 154.872C65.2656 155.27 65.3367 155.675 65.5217 156.032C65.7066 156.389 65.9965 156.68 66.3522 156.867L246.136 251.67C247.913 252.607 249.962 252.896 251.929 252.486L371.592 227.585C371.77 227.538 371.93 227.439 372.051 227.299C372.171 227.16 372.247 226.987 372.268 226.804C372.288 226.621 372.253 226.436 372.166 226.274C372.079 226.111 371.945 225.979 371.781 225.894L176.735 128.347C176.696 128.326 176.652 128.316 176.608 128.315H176.598Z" fill="#1C1C21"/>
<path d="M274.377 255.204L293.416 244.112L370.075 228.185C370.331 228.135 370.594 228.143 370.847 228.207C371.1 228.271 371.335 228.39 371.536 228.556C371.737 228.721 371.9 228.929 372.011 229.164C372.123 229.4 372.181 229.657 372.182 229.918V233.383C372.181 233.79 372.04 234.184 371.783 234.5C371.526 234.815 371.168 235.033 370.77 235.116" fill="white"/>
<path d="M279.817 246.888L262.732 257.648L268.978 256.31L287.359 245.423L279.817 246.888Z" fill="white"/>
<path d="M318.112 155.724L283.241 134.325L278.711 139.465L289.719 147.66" fill="white"/>
<path d="M318.112 155.724L283.241 134.325L278.711 139.465L289.719 147.66" stroke="#1C1C21" stroke-linecap="round" stroke-linejoin="round"/>
<path d="M256.469 123.797L245.651 78.4649L248.337 77.875L282.498 98.4525L289.719 147.661L256.106 124.107" fill="white"/>
<path d="M256.469 123.797L245.651 78.4649L248.337 77.875L282.498 98.4525L289.719 147.661L256.106 124.107" stroke="#1C1C21" stroke-linecap="round" stroke-linejoin="round"/>
<path d="M253.267 126.367L245.651 78.4648L279.812 99.0371L286.711 147.171" fill="white"/>
<path d="M253.267 126.367L245.651 78.4648L279.812 99.0371L286.711 147.171" stroke="#1C1C21" stroke-linecap="round" stroke-linejoin="round"/>
<path d="M287.122 148.556L316.785 158.478L318.112 155.724L287.106 144.537" fill="white"/>
<path d="M287.122 148.556L316.785 158.478L318.112 155.724L287.106 144.537" stroke="#1C1C21" stroke-linecap="round" stroke-linejoin="round"/>
<path d="M255.11 127.683L285.842 147.171" stroke="#1C1C21" stroke-linecap="round" stroke-linejoin="round"/>
<path d="M264.926 117.046C266.07 116.836 266.672 114.889 266.271 112.698C265.869 110.506 264.615 108.899 263.471 109.109C262.326 109.319 261.724 111.266 262.126 113.458C262.528 115.649 263.781 117.256 264.926 117.046Z" fill="#1C1C21"/>
<path d="M265.354 195.083C265.881 194.72 285.727 184.165 285.727 184.165L355.249 218.926L316.316 226.752L265.354 195.083Z" fill="white"/>
<path d="M270.827 175.917L371.818 226.61" stroke="#1C1C21" stroke-linecap="round" stroke-linejoin="round"/>
<path d="M89.0891 147.308C87.3748 143.93 85.2942 140.75 82.8848 137.827C82.2159 140.729 81.4944 143.236 79.3666 145.301C76.7015 147.887 73.1464 145.864 74.3894 142.394C75.5602 139.171 77.0216 136.061 78.7556 133.103C76.5699 130.78 74.2525 128.536 71.9087 126.424C71.3241 127.315 70.2339 129.4 69.6334 130.285C67.1001 134.04 62.2599 130.38 65.262 126.245V126.209C65.8617 125.185 66.0726 123.979 65.8559 122.813C65.6392 121.646 65.0095 120.597 64.0822 119.857C59.3026 116.07 54.3292 112.535 49.1823 109.265C48.2644 115.309 47.8364 121.418 47.9025 127.531C47.9065 128.638 48.2873 129.71 48.9824 130.572C49.6774 131.433 50.6451 132.033 51.7262 132.271C52.6426 132.466 53.538 132.739 54.4491 132.982C58.6995 134.098 57.3301 139.671 53.5485 139.355C51.9685 139.223 49.9513 137.775 48.445 137.559C48.7359 140.373 49.1737 143.17 49.7564 145.938C52.7385 145.768 55.7279 146.101 58.5994 146.923C62.0913 148.061 62.2862 152.158 58.5994 152.685C56.5401 152.975 54.0699 152.543 51.268 151.816C52.7406 156.812 55.0562 161.52 58.1149 165.736C72.1615 184.518 84.8967 179.867 84.8967 179.867C84.8967 179.867 98.9592 167.321 89.0891 147.308Z" fill="white" stroke="#1C1C21" stroke-linecap="round" stroke-linejoin="round"/>
<path d="M131.203 210.852C126.832 210.856 122.611 209.264 119.331 206.375C119.285 206.328 119.248 206.272 119.221 206.212C119.063 205.859 115.576 197.511 127.553 187.251C136.438 179.662 150.78 178.529 158.532 178.529C162.351 178.529 164.911 178.798 164.937 178.803C165.023 178.812 165.105 178.841 165.176 178.889C165.248 178.937 165.307 179.001 165.348 179.077C165.388 179.153 165.409 179.238 165.409 179.325C165.409 179.411 165.388 179.496 165.348 179.572C164.889 180.431 154.05 200.708 141.71 207.802C138.528 209.725 134.894 210.77 131.176 210.831L131.203 210.852Z" fill="#1C1C21"/>
<path d="M158.532 179.077C162.367 179.077 164.879 179.346 164.879 179.346C164.879 179.346 153.819 200.266 141.447 207.365C138.354 209.245 134.816 210.267 131.197 210.325C126.968 210.317 122.884 208.78 119.7 205.996C119.7 205.996 116.076 197.774 127.895 187.673C136.564 180.267 150.469 179.077 158.532 179.077ZM158.532 178.024C153.382 178 148.243 178.519 143.201 179.572C136.538 181.036 131.155 183.491 127.195 186.872C114.923 197.364 118.562 206.059 118.72 206.423C118.775 206.544 118.852 206.655 118.947 206.749C122.324 209.733 126.675 211.38 131.182 211.379C134.984 211.316 138.702 210.247 141.958 208.282C147.224 205.259 152.823 199.544 158.643 191.301C161.242 187.619 163.63 183.793 165.795 179.841C165.876 179.689 165.919 179.519 165.919 179.347C165.92 179.174 165.878 179.005 165.797 178.852C165.717 178.7 165.6 178.57 165.457 178.473C165.315 178.376 165.15 178.316 164.979 178.298C164.874 178.298 162.346 178.024 158.517 178.024H158.532Z" fill="white"/>
<path d="M106.638 228.169C111.318 214.913 120.078 203.481 131.661 195.515" stroke="#1C1C21" stroke-linecap="round" stroke-linejoin="round"/>
<path d="M98.8223 300.825C115.984 300.825 129.897 295.873 129.897 289.765C129.897 283.656 115.984 278.705 98.8223 278.705C81.6604 278.705 67.7479 283.656 67.7479 289.765C67.7479 295.873 81.6604 300.825 98.8223 300.825Z" fill="#1C1C21"/>
<path d="M68.6696 283.971C68.6696 289.175 78.0024 293.389 89.5158 293.389C101.029 293.389 110.362 289.175 110.362 283.971L122.17 229.196H56.8614L68.6696 283.971Z" fill="white" stroke="#1C1C21" stroke-linecap="round" stroke-linejoin="round"/>
<path d="M89.5158 243.944C107.55 243.944 122.17 237.341 122.17 229.196C122.17 221.052 107.55 214.449 89.5158 214.449C71.4812 214.449 56.8614 221.052 56.8614 229.196C56.8614 237.341 71.4812 243.944 89.5158 243.944Z" fill="white" stroke="#1C1C21" stroke-linecap="round" stroke-linejoin="round"/>
<path d="M125.109 230.666C125.109 239.809 109.172 247.219 89.5157 247.219C69.8599 247.219 53.9277 239.809 53.9277 230.666" stroke="#1C1C21" stroke-linecap="round" stroke-linejoin="round"/>
<path d="M117.44 250.337C117.44 256.852 104.942 262.135 89.5263 262.135C74.1102 262.135 61.612 256.868 61.612 250.337" stroke="#1C1C21" stroke-linecap="round" stroke-linejoin="round"/>
<path d="M113.985 265.854C113.985 273.227 103.03 279.168 89.5157 279.168C76.001 279.168 65.0513 273.206 65.0513 265.854" stroke="#1C1C21" stroke-linecap="round" stroke-linejoin="round"/>
<path d="M115.286 259.149C115.286 265.221 103.747 270.141 89.4789 270.141C75.211 270.141 63.703 265.221 63.703 259.149" stroke="#1C1C21" stroke-linecap="round" stroke-linejoin="round"/>
<path d="M113.938 276.666C113.938 282.76 103.004 287.727 89.5157 287.727C76.0274 287.727 65.0987 282.786 65.0987 276.666" stroke="#1C1C21" stroke-linecap="round" stroke-linejoin="round"/>
<path d="M89.5158 239.029C107.297 239.029 121.712 233.528 121.712 226.742C121.712 219.956 107.297 214.454 89.5158 214.454C71.7343 214.454 57.3196 219.956 57.3196 226.742C57.3196 233.528 71.7343 239.029 89.5158 239.029Z" fill="#1C1C21"/>
<path d="M81.6365 222.539C77.077 214.269 70.7712 207.091 63.1575 201.503C55.5439 195.916 46.8049 192.054 37.5478 190.185" stroke="#1C1C21" stroke-linecap="round" stroke-linejoin="round"/>
<path d="M16.1329 191.86C21.3576 191.544 26.5612 190.659 31.7965 190.601C35.9731 190.559 40.1497 191.038 44.321 190.643C48.4924 190.248 52.8112 188.821 55.4393 185.745C56.8508 184.096 57.6145 181.563 56.1345 180.03C54.7862 178.629 52.3793 178.824 50.341 179.13L29.5897 182.253C25.7501 182.827 21.9106 183.406 18.0922 184.102C14.4475 184.771 9.66522 185.155 6.33131 186.782C4.44052 187.688 3.03427 189.916 5.25161 191.201C7.78496 192.666 13.2572 192.034 16.1329 191.86Z" fill="#1C1C21"/>
<path d="M3.83482 182.427C2.04937 183.917 0.469315 186.192 1.1698 188.394C1.69649 190.079 3.53461 191.101 5.30427 191.264C7.0957 191.497 8.91585 191.193 10.5342 190.39C23.1167 183.359 39.9127 183.19 52.9007 179.23C36.6314 177.855 15.9433 172.225 3.83482 182.427Z" fill="white" stroke="#1C1C21" stroke-linecap="round" stroke-linejoin="round"/>
<path d="M81.6366 222.539C80.2621 220.015 78.7153 217.588 77.007 215.276" stroke="white" stroke-width="2" stroke-linecap="round" stroke-linejoin="round"/>
<path d="M106.638 228.169C107.868 224.674 109.392 221.289 111.194 218.052" stroke="white" stroke-width="2" stroke-linecap="round" stroke-linejoin="round"/>
<path d="M63.1815 133.866C83.4589 165.994 87.093 182.363 89.1418 217.509" stroke="#1C1C21" stroke-linecap="round" stroke-linejoin="round"/>
<path d="M88.9522 214.307C89.0154 215.36 89.3841 226.163 89.5157 229.981" stroke="white" stroke-width="2" stroke-linecap="round" stroke-linejoin="round"/>
<path d="M119.974 205.68C126.121 198.388 134.193 192.97 143.269 190.042" stroke="white" stroke-width="2" stroke-linecap="round" stroke-linejoin="round"/>
<path d="M261.115 233.415C270.463 233.415 278.042 230.717 278.042 227.39C278.042 224.062 270.463 221.365 261.115 221.365C251.766 221.365 244.187 224.062 244.187 227.39C244.187 230.717 251.766 233.415 261.115 233.415Z" fill="#1C1C21"/>
<path d="M268.467 207.281V226.242C268.467 229.086 263.358 231.393 257.054 231.393C250.749 231.393 245.646 229.086 245.646 226.242V207.281" fill="white"/>
<path d="M268.467 207.281V226.242C268.467 229.086 263.358 231.393 257.054 231.393C250.749 231.393 245.646 229.086 245.646 226.242V207.281" stroke="#1C1C21" stroke-linecap="round" stroke-linejoin="round"/>
<path d="M257.054 212.432C263.354 212.432 268.462 210.126 268.462 207.281C268.462 204.436 263.354 202.13 257.054 202.13C250.753 202.13 245.646 204.436 245.646 207.281C245.646 210.126 250.753 212.432 257.054 212.432Z" fill="white" stroke="#1C1C21" stroke-linecap="round" stroke-linejoin="round"/>
<path d="M257.054 214.428C263.354 214.428 268.462 212.391 268.462 209.877C268.462 207.364 263.354 205.327 257.054 205.327C250.753 205.327 245.646 207.364 245.646 209.877C245.646 212.391 250.753 214.428 257.054 214.428Z" fill="white" stroke="#1C1C21" stroke-linecap="round" stroke-linejoin="round"/>
<path d="M257.054 212.553C263.267 212.553 268.304 210.631 268.304 208.26C268.304 205.89 263.267 203.968 257.054 203.968C250.841 203.968 245.804 205.89 245.804 208.26C245.804 210.631 250.841 212.553 257.054 212.553Z" fill="#1C1C21"/>
<path d="M242.423 224.925C239.389 224.925 235.523 221.475 235.523 217.219C235.523 212.964 238.609 209.509 242.423 209.509C243.35 209.518 244.265 209.724 245.107 210.113C245.949 210.503 246.698 211.067 247.305 211.768" fill="white"/>
<path d="M242.423 224.925C239.389 224.925 235.523 221.475 235.523 217.219C235.523 212.964 238.609 209.509 242.423 209.509C243.35 209.518 244.265 209.724 245.107 210.113C245.949 210.503 246.698 211.067 247.305 211.768" stroke="#1C1C21" stroke-linecap="round" stroke-linejoin="round"/>
<path d="M248.774 213.054C248.167 212.354 247.419 211.791 246.578 211.403C245.737 211.014 244.823 210.808 243.897 210.799C240.084 210.799 236.992 214.249 236.992 218.505C236.992 222.76 240.121 224.825 242.517 225.573C243.877 226.018 245.301 226.235 246.731 226.215" fill="white"/>
<path d="M248.774 213.054C248.167 212.354 247.419 211.791 246.578 211.403C245.737 211.014 244.823 210.808 243.897 210.799C240.084 210.799 236.992 214.249 236.992 218.505C236.992 222.76 240.121 224.825 242.517 225.573C243.877 226.018 245.301 226.235 246.731 226.215" stroke="#1C1C21" stroke-linecap="round" stroke-linejoin="round"/>
<path d="M247.821 214.66C247.357 214.142 246.788 213.726 246.153 213.442C245.518 213.157 244.83 213.008 244.134 213.006C241.259 213.006 238.936 215.529 238.936 218.642C238.936 221.754 241.29 223.255 243.091 223.808C244.122 224.14 245.2 224.3 246.283 224.282" fill="white"/>
<path d="M247.821 214.66C247.357 214.142 246.788 213.726 246.153 213.442C245.518 213.157 244.83 213.008 244.134 213.006C241.259 213.006 238.936 215.529 238.936 218.642C238.936 221.754 241.29 223.255 243.091 223.808C244.122 224.14 245.2 224.3 246.283 224.282" stroke="#1C1C21" stroke-linecap="round" stroke-linejoin="round"/>
<path d="M245.646 214.133V223.903" stroke="#1C1C21" stroke-linecap="round" stroke-linejoin="round"/>
<path d="M254.183 187.415C254.904 187.633 255.551 188.046 256.052 188.608C256.553 189.17 256.889 189.86 257.022 190.601C257.175 191.765 256.496 192.903 255.674 193.872C254.769 194.778 253.915 195.732 253.114 196.732C250.876 200.008 253.083 204.274 257.286 205.912" fill="white"/>
<path d="M254.183 187.415C254.904 187.633 255.551 188.046 256.052 188.608C256.553 189.17 256.889 189.86 257.022 190.601C257.175 191.765 256.496 192.903 255.674 193.872C254.769 194.778 253.915 195.732 253.114 196.732C250.876 200.008 253.083 204.274 257.286 205.912" stroke="#1C1C21" stroke-linecap="round" stroke-linejoin="round"/>
<path d="M256.511 198.938C255.911 200.776 257.507 202.098 258.481 203.22C260.335 205.353 259.361 208.692 256.511 209.946" fill="white"/>
<path d="M256.511 198.938C255.911 200.776 257.507 202.098 258.481 203.22C260.335 205.353 259.361 208.692 256.511 209.946" stroke="#1C1C21" stroke-linecap="round" stroke-linejoin="round"/>
<path d="M356.165 17.4589C356.165 31.4792 352.362 53.8896 338.021 54.3267C325.538 41.3914 318.987 2.88553 318.987 2.88553C318.987 2.88553 319.756 2.62745 320.567 2.28511C321.093 1.75842 330.542 5.52421 337.995 1C344.852 11.0807 356.165 16.9375 356.165 17.4589Z" fill="#1C1C21" stroke="#1C1C21" stroke-linecap="round" stroke-linejoin="round"/>
<path d="M354.627 18.2279C354.627 32.2482 350.825 54.6586 336.478 55.0958C322.947 41.0702 319.055 16.5215 319.055 3.05415C319.582 2.52747 329.03 6.29326 336.478 1.76904C343.34 11.855 354.627 17.7065 354.627 18.2279Z" fill="white" stroke="#1C1C21" stroke-linecap="round" stroke-linejoin="round"/>
<path d="M351.025 20.4188C351.025 31.8531 348.023 50.1396 336.657 50.5609C325.881 39.1055 322.331 18.4648 322.331 7.41497C322.752 6.98309 330.289 10.1011 336.214 6.4248C341.639 14.6937 351.025 19.9922 351.025 20.4188Z" fill="white" stroke="#1C1C21" stroke-linecap="round" stroke-linejoin="round"/>
<path d="M470.334 104.92L442.478 90.3465C439.961 89.1088 437.928 85.1429 437.922 81.4877L437.864 51.7985C437.864 51.7985 439.945 49.7971 442.462 50.9348L469.918 63.3803C472.583 64.5864 474.753 68.6471 474.753 72.4287V100.174C474.764 103.961 470.334 104.92 470.334 104.92Z" fill="#1C1C21" stroke="#1C1C21" stroke-linecap="round" stroke-linejoin="round"/>
<path d="M468.101 104.656L440.645 91.1786C438.128 89.9409 436.095 85.975 436.095 82.3198V56.328C436.095 52.6728 438.122 50.6293 440.64 51.7669L468.085 64.2019C470.751 65.408 472.92 69.4687 472.92 73.2503V100.164C472.936 103.961 470.766 105.968 468.101 104.656Z" fill="white" stroke="#1C1C21" stroke-linecap="round" stroke-linejoin="round"/>
<path d="M436.084 57.1392L469.45 72.4973" stroke="#1C1C21" stroke-linecap="round" stroke-linejoin="round"/>
<path d="M447.181 69.7588L472.273 81.488" stroke="#1C1C21" stroke-linecap="round" stroke-linejoin="round"/>
<path d="M468.807 94.2969C468.807 97.6729 466.885 99.4689 464.515 98.3155L461.502 96.8566" stroke="#1C1C21" stroke-linecap="round" stroke-linejoin="round"/>
<path d="M445.996 84.0528L443.152 82.6834V75.0518L445.991 76.4001C447.455 77.0953 448.625 79.3758 448.625 81.4931C448.64 83.6104 447.455 84.7427 445.996 84.0528Z" stroke="#1C1C21" stroke-linecap="round" stroke-linejoin="round"/>
<path d="M443.152 75.0518V87.9239" stroke="#1C1C21" stroke-linecap="round" stroke-linejoin="round"/>
<path d="M441.304 84.332L445.528 86.3756" stroke="#1C1C21" stroke-linecap="round" stroke-linejoin="round"/>
<path d="M441.304 81.7935L445.528 83.8265" stroke="#1C1C21" stroke-linecap="round" stroke-linejoin="round"/>
<path d="M456.614 105.958V184.428L385.512 198.122L336.341 169.502" stroke="#1C1C21" stroke-linecap="round" stroke-linejoin="round"/>
<g style="mix-blend-mode:multiply">
<g style="mix-blend-mode:multiply">
<path d="M221.534 79.2865L215.941 45.2416C215.895 44.962 215.931 44.6751 216.043 44.415C216.156 44.155 216.341 43.9327 216.576 43.7746C216.811 43.6166 217.087 43.5293 217.37 43.5233C217.653 43.5172 217.932 43.5927 218.174 43.7406L238.162 55.9702C239.321 56.6791 240.321 57.6194 241.1 58.7322C241.88 59.845 242.421 61.1064 242.691 62.4379L249.891 97.9785C249.949 98.2625 249.922 98.5573 249.814 98.8263C249.706 99.0953 249.521 99.3266 249.283 99.4915C249.044 99.6564 248.763 99.7477 248.473 99.754C248.183 99.7603 247.898 99.6813 247.653 99.5269L226.059 86.086C224.864 85.3401 223.842 84.3476 223.062 83.175C222.282 82.0023 221.761 80.6766 221.534 79.2865Z" fill="#DDE9AA"/>
</g>
<g style="mix-blend-mode:multiply">
<path d="M265.391 95.0394L257.491 46.8215C257.435 46.4285 257.492 46.0278 257.655 45.6656C257.817 45.3034 258.078 44.9944 258.408 44.7742C258.739 44.5541 259.124 44.4317 259.521 44.4212C259.918 44.4106 260.31 44.5124 260.651 44.7147L288.971 62.0426C290.612 63.0474 292.028 64.3798 293.131 65.9567C294.234 67.5335 295 69.3208 295.381 71.2069L305.582 121.553C305.66 121.953 305.619 122.367 305.466 122.745C305.313 123.123 305.053 123.448 304.718 123.681C304.384 123.914 303.989 124.045 303.581 124.058C303.174 124.071 302.771 123.965 302.422 123.754L271.817 104.651C270.122 103.6 268.672 102.199 267.564 100.541C266.455 98.883 265.715 97.0072 265.391 95.0394Z" fill="#F2D0E3"/>
</g>
<g style="mix-blend-mode:multiply">
<path d="M236.518 41.5548L233.537 23.4052C233.511 23.2554 233.528 23.1012 233.587 22.9611C233.647 22.8209 233.745 22.7008 233.871 22.6152C233.996 22.5295 234.144 22.482 234.296 22.4783C234.448 22.4745 234.598 22.5148 234.728 22.5941L245.377 29.125C245.999 29.5056 246.535 30.0111 246.951 30.6094C247.367 31.2078 247.654 31.886 247.795 32.6011L251.634 51.5617C251.664 51.7127 251.65 51.8692 251.592 52.0121C251.535 52.1549 251.437 52.2778 251.31 52.3656C251.184 52.4535 251.034 52.5024 250.881 52.5065C250.727 52.5106 250.575 52.4696 250.444 52.3886L238.931 45.1783C238.294 44.7812 237.749 44.2524 237.333 43.6274C236.917 43.0025 236.639 42.2958 236.518 41.5548Z" fill="#F9F0BA"/>
</g>
</g>
<path d="M363.128 112.768C379.155 110.002 396.383 106.779 401.855 115.691C407.327 124.602 416.739 131.802 413.69 143.194C410.64 154.586 395.082 170.155 390.779 174.795C386.476 179.435 388.298 180.557 383.932 187.672C379.566 194.788 375.842 205.58 359.573 201.925C343.304 198.269 328.119 179.051 329.462 174.274C330.805 169.497 338.532 155.255 343.072 151.484C347.612 147.713 349.845 138.038 353.031 128.889C356.218 119.741 363.128 112.768 363.128 112.768Z" fill="white"/>
<path d="M191.461 132.629C197.017 135.436 210.421 163.266 210.421 163.266L191.987 160.195C191.987 160.195 185.873 137.443 185.52 133.398C185.13 129.01 191.987 131.749 191.987 131.749" fill="white"/>
<path d="M296.729 133.398C294.506 134.978 291.552 136.2 290.409 136.9C289.266 137.601 288.829 138.149 288.918 138.881C289.008 139.613 289.708 143.194 289.708 143.194C289.708 143.194 293.711 144.3 298.061 140.914C299.873 139.502 304.181 140.113 304.85 138.881C305.519 137.648 300.147 132.876 299.81 132.876C299.473 132.876 296.729 133.398 296.729 133.398Z" fill="white"/>
<path d="M207.572 183.264C196.122 184.844 191.097 190.28 210.432 190.28C222.798 190.28 227.56 189.026 230.188 186.214C233.095 183.096 215.92 182 215.92 182L211.538 185.987L207.572 183.264Z" fill="#1C1C21"/>
<path d="M340.707 145.401C345.005 142.983 350.445 145.369 354.58 146.691C364.187 149.751 374.515 153.164 384.122 156.23L392.901 120.689" stroke="#1C1C21" stroke-linecap="round" stroke-linejoin="round"/>
<path d="M358.051 62.2114C358.167 70.849 358.616 79.4761 359.399 88.0927C359.631 90.6734 360.131 93.6439 362.375 94.9396C363.292 95.4178 364.311 95.6671 365.345 95.6664C367.321 95.7358 369.288 95.3859 371.118 94.6396C372.948 93.8934 374.6 92.7678 375.963 91.337" stroke="#1C1C21" stroke-linecap="round" stroke-linejoin="round"/>
<path d="M383.974 97.0829C383.242 96.9987 399.085 99.748 407.333 106.895C422.67 120.189 412.984 148.292 409.387 158.289C405.789 168.285 398.505 178.045 387.993 179.577C378.512 180.963 370.465 178.74 361.311 175.854C352.157 172.968 343.309 168.612 336.314 162.039C335.224 161.012 334.619 158.489 335.198 157.109C333.565 156.303 332.28 154.923 330.642 154.118C330.115 153.849 329.462 153.449 329.478 152.838C329.499 152.605 329.571 152.381 329.689 152.179L333.802 143.731C334.087 143.147 334.461 142.488 335.103 142.367C335.625 142.34 336.138 142.505 336.546 142.831L340.728 145.427" stroke="#1C1C21" stroke-linecap="round" stroke-linejoin="round"/>
<path d="M368.421 97.083C360.753 97.083 350.835 100.401 346.206 104.167C339.691 109.46 335.672 117.513 334.092 120.968C332.343 124.771 326.423 137.411 326.423 137.411" stroke="#1C1C21" stroke-linecap="round" stroke-linejoin="round"/>
<path d="M368.421 95.8032L369.417 105.81C369.548 107.095 371.244 108.064 372.498 108.365C373.773 108.613 375.088 108.557 376.337 108.201C378.127 107.747 379.809 106.944 381.287 105.838C382.764 104.731 384.009 103.344 384.949 101.755" stroke="#1C1C21" stroke-linecap="round" stroke-linejoin="round"/>
<path d="M353.047 113.431C349.587 124.186 346.622 133.287 343.088 144.016" stroke="#1C1C21" stroke-linecap="round" stroke-linejoin="round"/>
<path d="M382.594 84.8008C382.452 90.0418 382.994 95.2791 384.206 100.38" stroke="#1C1C21" stroke-linecap="round" stroke-linejoin="round"/>
<path d="M361.327 78.1276C360.212 77.9217 359.079 77.8229 357.945 77.8327C357.884 77.8369 357.823 77.8547 357.769 77.8848C357.715 77.9149 357.668 77.9566 357.632 78.0069C357.596 78.0572 357.571 78.1148 357.56 78.1758C357.548 78.2367 357.551 78.2994 357.566 78.3594C357.745 79.7972 359.489 81.3404 361.611 81.5669" fill="white"/>
<path d="M361.327 78.1276C360.212 77.9217 359.079 77.8229 357.945 77.8327C357.884 77.8369 357.823 77.8547 357.769 77.8848C357.715 77.9149 357.668 77.9566 357.632 78.0069C357.596 78.0572 357.571 78.1148 357.56 78.1758C357.548 78.2367 357.551 78.2994 357.566 78.3594C357.745 79.7972 359.489 81.3404 361.611 81.5669" stroke="#1C1C21" stroke-linecap="round" stroke-linejoin="round"/>
<path d="M368.874 72.9346V75.3678" stroke="#1C1C21" stroke-linecap="round" stroke-linejoin="round"/>
<path d="M360.721 85.5908C360.849 86.0918 361.121 86.544 361.504 86.8912C361.887 87.2384 362.364 87.4652 362.875 87.5432C363.386 87.6213 363.909 87.5472 364.378 87.3302C364.847 87.1132 365.242 86.7629 365.514 86.3229" stroke="#1C1C21" stroke-linecap="round" stroke-linejoin="round"/>
<path d="M379.46 78.3279C379.415 78.0501 379.426 77.7659 379.492 77.4923C379.558 77.2186 379.678 76.961 379.846 76.7347C380.013 76.5083 380.224 76.3178 380.467 76.1745C380.709 76.0311 380.977 75.9377 381.256 75.8999C381.823 75.85 382.392 75.9671 382.892 76.2366C383.393 76.5062 383.804 76.9164 384.074 77.4167C384.599 78.4318 384.743 79.6016 384.48 80.7138C384.048 82.889 381.994 85.0062 379.861 84.4006" stroke="#1C1C21" stroke-linecap="round" stroke-linejoin="round"/>
<path d="M380.466 80.5872C380.798 79.4811 381.931 78.4804 382.347 78.3804" stroke="#1C1C21" stroke-linecap="round" stroke-linejoin="round"/>
<path d="M386.476 179.488C384.748 181.805 384.496 184.86 383.948 187.699C383.4 190.538 382.226 193.613 379.592 194.814C376.342 196.294 369.906 198.117 361.158 194.003C359.394 193.171 353.363 189.59 350.54 186.888C343.951 180.568 338.263 174.774 330.816 169.507C331.867 166.536 333.343 163.733 335.198 161.186" stroke="#1C1C21" stroke-linecap="round" stroke-linejoin="round"/>
<path d="M359.589 73.73L359.805 76.1685" stroke="#1C1C21" stroke-linecap="round" stroke-linejoin="round"/>
<path d="M384.074 77.4163C385.818 64.5389 388.051 55.7644 377.075 52.9045C366.878 50.271 363.744 51.3244 363.128 52.0354C362.512 52.7465 364.118 53.4311 364.118 53.4311C364.118 53.4311 356.155 51.7721 356.924 53.9578C357.524 55.6748 359.415 55.106 359.415 55.106C359.415 55.106 353.047 55.106 353.047 56.6492C353.047 58.8613 356.165 58.6137 356.165 58.6137C356.165 58.6137 351.662 59.3827 353.574 61.6369C354.627 62.8799 358.651 63.6909 365.514 60.2359C370.37 57.7921 373.983 59.4669 373.983 59.4669C373.983 59.4669 373.598 67.0196 375.563 69.8847C377.528 72.7499 378.723 73.5294 379.013 74.9514C379.35 76.5315 379.402 77.0582 379.402 77.0582C379.402 77.0582 381.509 75.3043 382.336 75.8626C382.969 76.3178 383.551 76.8386 384.074 77.4163Z" fill="#1C1C21"/>
<path d="M366.804 65.2554C367.368 64.4549 369.116 64.2021 369.964 64.7287" stroke="#1C1C21" stroke-linecap="round" stroke-linejoin="round"/>
<path d="M358.251 69.021H359.594" stroke="#1C1C21" stroke-linecap="round" stroke-linejoin="round"/>
<path d="M383.974 156.182C387.775 157.162 391.099 159.472 393.344 162.692" stroke="#1C1C21" stroke-linecap="round" stroke-linejoin="round"/>
<path d="M360.753 130.48L364.856 149.651C364.892 149.846 364.982 150.078 365.177 150.094C365.372 150.109 365.351 149.693 365.177 149.804" stroke="#1C1C21" stroke-linecap="round" stroke-linejoin="round"/>
<path d="M379.592 194.82C376.373 199.965 371.994 204.286 366.804 207.434C359.589 211.932 349.018 212.827 338.221 207.608C329.478 203.394 326.313 200.392 318.897 195.61C310.386 190.127 285.553 168.449 285.553 168.449L243.55 166.342L225.969 176.012C225.969 176.012 216.705 171.946 212.481 166.294C211.548 165.046 210.811 163.951 210.232 163.008C209.475 161.764 208.979 160.379 208.774 158.938C208.568 157.497 208.657 156.029 209.036 154.623L210.748 148.192L235.987 147.07L264.206 133.377L286.722 147.149L310.065 156.208L330.816 169.539C330.816 169.539 343.088 179.762 346.774 183.791C349.482 186.746 361.632 195.873 367.731 196.521C375.963 197.374 379.592 194.82 379.592 194.82Z" fill="#1C1C21"/>
<path d="M286.801 166.705C286.801 166.705 292.452 162.197 295.138 159.785" stroke="white" stroke-width="2" stroke-linecap="round" stroke-linejoin="round"/>
<path d="M289.803 168.485C293.648 167.776 297.315 166.316 300.595 164.188" stroke="white" stroke-width="2" stroke-linecap="round" stroke-linejoin="round"/>
<path d="M376.522 59.6883L379.597 62.2374C379.861 60.9061 379.808 59.5316 379.445 58.2241C380.635 58.9825 381.813 59.7638 382.979 60.5679" stroke="white" stroke-width="2" stroke-linecap="round" stroke-linejoin="round"/>
<path d="M386.755 103.224C385.465 105.931 382.347 108.491 379.155 110.003C376.258 111.351 369.949 111.793 367.937 108.233C366.883 106.332 366.941 103.909 368.837 102.829" stroke="#1C1C21" stroke-linecap="round" stroke-linejoin="round"/>
<path d="M368.537 128.916C368.91 133.842 369.829 138.712 371.276 143.436" stroke="#1C1C21" stroke-linecap="round" stroke-linejoin="round"/>
<path d="M339.691 146.939C338.69 148.956 336.42 152.295 335.646 155.302" stroke="#1C1C21" stroke-linecap="round" stroke-linejoin="round"/>
<path d="M303.839 146.639C308.479 145.29 314.731 140.845 318.097 138.781" stroke="#1C1C21" stroke-linecap="round" stroke-linejoin="round"/>
<path d="M334.445 142.71C332.043 141.656 325.107 136.705 323.985 136.126C322.405 135.299 320.651 134.82 318.918 135.268C317.185 135.715 316.1 137.185 314.42 137.811C311.992 138.723 310.449 138.501 309.838 139.597C308.969 141.177 308.258 144.537 308.258 144.537" stroke="#1C1C21" stroke-linecap="round" stroke-linejoin="round"/>
<path d="M288.592 138.043C291.294 136.353 294.706 134.251 297.398 132.545C299.394 131.281 301.827 131.249 302.981 131.749C304.808 132.562 306.543 133.566 308.158 134.746C309.974 136.082 311.968 137.157 314.083 137.938" stroke="#1C1C21" stroke-linecap="round" stroke-linejoin="round"/>
<path d="M300.511 136.136L294.122 140.044C292.821 140.84 291.057 142.251 289.529 142.214" stroke="#1C1C21" stroke-linecap="round" stroke-linejoin="round"/>
<path d="M298.151 134.493L293.084 137.469C291.875 138.265 290.607 138.97 289.292 139.576" stroke="#1C1C21" stroke-linecap="round" stroke-linejoin="round"/>
<path d="M211.822 163.624C211.643 164.298 211.08 164.567 210.458 164.894C202.252 160.512 193.978 156.266 185.636 152.158C184.387 151.547 182.807 150.494 181.422 150.536C180.037 150.578 178.667 151.821 178.093 153.08C184.461 161.986 192.077 170.339 200.741 177.018C203.406 177.903 206.892 179.43 208.451 179.978C207.635 181.031 206.429 182.469 206.429 182.469C208.12 183.665 209.752 184.929 211.533 185.987L211.828 185.703C215.851 181.784 220.581 178.203 224.931 174.642" stroke="#1C1C21" stroke-linecap="round" stroke-linejoin="round"/>
<path d="M221.924 176.027C219.747 174.846 217.452 173.897 215.077 173.194C212.175 172.341 210.474 170.392 210.785 167.4" stroke="#1C1C21" stroke-linecap="round" stroke-linejoin="round"/>
<path d="M196.733 158.241L197.496 163.793" stroke="#1C1C21" stroke-linecap="round" stroke-linejoin="round"/>
<path d="M199.593 159.858L200.272 165.42" stroke="#1C1C21" stroke-linecap="round" stroke-linejoin="round"/>
<path d="M202.4 161.296L202.927 166.495" stroke="#1C1C21" stroke-linecap="round" stroke-linejoin="round"/>
<path d="M180.068 152.854C185.422 160.292 191.648 167.063 198.613 173.02" stroke="#1C1C21" stroke-linecap="round" stroke-linejoin="round"/>
<path d="M206.703 153.032C202.395 145.996 200.383 143.284 195.4 136.705C192.588 132.992 191.124 131.47 188.343 131.67C185.562 131.87 185.056 133.503 185.899 136.168C187.063 139.855 190.581 153.68 190.776 154.27" stroke="#1C1C21" stroke-linecap="round" stroke-linejoin="round"/>
<path d="M187.442 135.094C187.442 135.094 190.934 147.165 192.461 152.854" stroke="#1C1C21" stroke-linecap="round" stroke-linejoin="round"/>
<path d="M211.822 163.624C227.054 163.919 241.585 165.668 241.585 165.668" stroke="white" stroke-width="2" stroke-linecap="round" stroke-linejoin="round"/>
<path d="M230.188 146.665C244.003 146.907 269.884 145.669 269.884 145.669C269.884 145.669 282.677 145.143 284.705 146.449" stroke="white" stroke-width="2" stroke-linecap="round" stroke-linejoin="round"/>
<path d="M368.874 100.38C374.52 97.9781 376.511 91.3472 376.511 91.3472C374.046 93.2186 371.32 94.7197 368.421 95.8029L368.874 100.38Z" fill="#1C1C21"/>
<path d="M219.638 166.173C222.492 169.123 225.755 171.645 229.329 173.663" stroke="white" stroke-width="2" stroke-linecap="round" stroke-linejoin="round"/>
<path d="M212.196 159.574C211.475 156.029 213.734 152.58 213.976 148.972" stroke="white" stroke-width="2" stroke-linecap="round" stroke-linejoin="round"/>
<path d="M246.694 153.98C251.238 156.45 255.47 159.456 259.298 162.934" stroke="white" stroke-width="2" stroke-linecap="round" stroke-linejoin="round"/>
<path d="M196.275 145.464C197.328 144.279 197.997 143.552 199.076 142.394" stroke="#1C1C21" stroke-linecap="round" stroke-linejoin="round"/>
<path d="M197.107 147.813L200.398 144.116" stroke="#1C1C21" stroke-linecap="round" stroke-linejoin="round"/>
<path d="M198.271 149.709C199.457 148.403 200.585 147.051 201.652 145.654" stroke="#1C1C21" stroke-linecap="round" stroke-linejoin="round"/>
<path d="M304.124 138.991C302.217 139.36 300.216 139.876 298.857 141.277C298.356 141.804 297.951 142.552 298.225 143.215C298.361 143.516 298.585 143.77 298.867 143.942C299.176 144.161 299.542 144.284 299.921 144.295C300.474 144.233 301.001 144.026 301.448 143.694C302.779 142.925 304.239 142.406 305.756 142.162" stroke="#1C1C21" stroke-linecap="round" stroke-linejoin="round"/>
<path d="M292.289 143.984C293.652 143.585 294.951 142.991 296.144 142.22C296.824 141.825 301.938 137.822 303.855 138.996" stroke="#1C1C21" stroke-linecap="round" stroke-linejoin="round"/>
<path d="M320.282 140.866C317.707 142.583 314.594 144.901 311.813 146.27C310.044 147.139 308.179 147.95 306.209 148.04" stroke="#1C1C21" stroke-linecap="round" stroke-linejoin="round"/>
<path d="M322.436 142.709C322.436 142.709 314.189 149.435 309.454 149.841" stroke="#1C1C21" stroke-linecap="round" stroke-linejoin="round"/>
<path d="M329.584 151.979C328.349 151.81 327.135 151.517 325.96 151.105C324.948 150.734 324.044 150.119 323.326 149.314C322.8 148.682 322.442 147.692 321.473 147.692C320.856 147.692 318.813 148.814 317.038 149.83C315.052 150.963 312.824 151.121 312.345 150.399" stroke="#1C1C21" stroke-linecap="round" stroke-linejoin="round"/>
<path d="M320.282 148.039C321.715 147.17 324.069 145.453 324.585 145.027" stroke="#1C1C21" stroke-linecap="round" stroke-linejoin="round"/>
<path d="M288.228 136.126C290.121 134.897 292.297 134.172 294.548 134.019" stroke="#1C1C21" stroke-linecap="round" stroke-linejoin="round"/>
<path d="M312.34 141.014C312.174 141.638 311.96 142.249 311.703 142.841" stroke="#1C1C21" stroke-linecap="round" stroke-linejoin="round"/>
</svg>
