<svg width="150" height="26" viewBox="0 0 150 26" fill="none" xmlns="http://www.w3.org/2000/svg">
<path id="logotype sovest" fill-rule="evenodd" clip-rule="evenodd" d="M61.799 7.5527H64.0018C65.4839 7.5527 66.5129 8.18809 66.5129 9.54257C66.5129 11.2148 65.2154 11.6591 63.9797 11.6591H61.7979V7.5527H61.799ZM142.775 13.606H144.957C147.303 13.606 147.797 14.851 147.797 15.9093C147.797 18.1696 145.513 18.1696 144.895 18.1696H142.776V13.6039L142.775 13.606ZM61.799 13.6887H64.0437C65.978 13.6887 66.8832 14.3863 66.8832 15.8889C66.8832 17.9797 65.0108 18.2115 63.4049 18.2115H61.8V13.6887H61.799ZM131.019 7.5527V5.48126H120.561V7.5527H124.68V20.2819H126.904V7.5527H131.02H131.019ZM107.801 7.29833C109.653 7.29833 111.073 8.12476 111.897 8.92973V6.3034C110.436 5.43619 108.708 5.22475 107.739 5.22475C103.438 5.22475 100.06 8.22994 100.06 12.8826C100.06 17.5332 103.438 20.533 107.739 20.533C108.708 20.533 110.435 20.3216 111.898 19.4554V16.8366C111.074 17.6384 109.653 18.4616 107.802 18.4616C104.466 18.4616 102.368 16.0757 102.368 12.8805C102.368 9.68532 104.466 7.29619 107.802 7.29619L107.801 7.29833ZM81.3524 20.2829H89.6035V18.2115H83.572V13.7112H89.0685V11.5539H83.572V7.55163H89.6035V5.48019H81.3524V20.2808V20.2829ZM140.551 20.2829H145.121C147.859 20.2829 149.999 18.7825 149.999 15.8889C149.999 12.8859 147.714 11.4262 145.121 11.4262H142.774V5.48019H140.55V20.2829H140.551ZM40.8231 18.5088C37.715 18.5088 35.5532 16.1851 35.5532 12.8848C35.5532 9.5855 37.714 7.25755 40.8231 7.25755C43.8902 7.25755 46.0521 9.58658 46.0521 12.8869C46.0521 16.1873 43.8913 18.5109 40.8231 18.5109V18.5088ZM59.5762 20.2829H63.8979C66.6986 20.2829 69.1888 19.1839 69.1888 16.1851C69.1888 13.899 67.9542 12.9481 66.6367 12.5896C68.078 11.892 68.7556 10.9174 68.7556 9.2882C68.7556 6.43327 66.3902 5.48019 64.0228 5.48019H59.5752V20.2808L59.5762 20.2829ZM40.8231 5.2269C36.4594 5.2269 33.2476 8.54764 33.2476 12.8848C33.2476 17.2402 36.4594 20.5351 40.8231 20.5351C45.1238 20.5351 48.3566 17.2402 48.3566 12.8848C48.3566 8.54871 45.1259 5.22582 40.8231 5.22582V5.2269ZM12.8245 1.98772C18.6713 1.98772 23.4262 6.87546 23.4262 12.8837C23.4262 18.8866 18.6713 23.769 12.8245 23.769C6.97865 23.769 2.22375 18.8855 2.22375 12.8837C2.22375 6.87546 6.97865 1.98772 12.8245 1.98772ZM0 12.8848C0 20.0704 5.78392 25.7588 12.8245 25.7588C19.7822 25.7588 25.5671 20.2819 25.5671 12.8848C25.5671 5.50058 19.7832 0 12.8245 0C5.78392 0 0 5.71202 0 12.8848ZM13.5451 18.4659C15.3975 18.4659 16.8178 17.6416 17.6412 16.8388V19.4576C16.18 20.3226 14.4503 20.5341 13.4832 20.5341C9.18249 20.5341 5.80487 17.5342 5.80487 12.8837C5.80487 8.22887 9.18249 5.22475 13.4832 5.22475C14.4503 5.22475 16.179 5.43511 17.6412 6.30233V8.92973C16.8178 8.12476 15.3965 7.30048 13.5451 7.30048C10.2094 7.30048 8.11151 9.69176 8.11151 12.8859C8.11151 16.0799 10.2094 18.4669 13.5451 18.4669V18.4659Z" fill="#1A1918"/>
</svg>
